<svg width="100" height="100" viewBox="0 0 100 100" fill="none" xmlns="http://www.w3.org/2000/svg">
<rect width="100" height="100" rx="30" fill="white"/>
<path d="M33.608 32.4195C35.8017 19.501 47.5979 10.4683 60.6415 11.719L74 13L71.5163 60.1904C70.9178 71.5613 62.7112 81.0913 51.555 83.3705L24 89L33.608 32.4195Z" fill="#1047EB"/>
<path fill-rule="evenodd" clip-rule="evenodd" d="M63.5575 57.1839L66.1545 32.8718L72.3001 33.9534L68.6218 12.5719C21 2.21729e-05 19 53.55 19 89L28.132 89.6418L35.7791 39.2831L51.9745 42.4338L57.881 31.2016L51.7283 30.0738L68.6218 12.5719H77.2529C77.2529 58.9882 85.2508 89.6418 28.132 89.6418L47.5574 54.1083L63.5575 57.1839Z" fill="white"/>
</svg>
