<svg width="40" height="40" viewBox="0 0 40 40" fill="none" xmlns="http://www.w3.org/2000/svg">
<g clip-path="url(#clip0_29_1240)">
<path fill-rule="evenodd" clip-rule="evenodd" d="M22.165 20.1713L29.4338 12.9025C29.8238 12.5125 30.4913 12.7775 30.5075 13.3288L30.555 15.0362C30.575 15.7262 31.15 16.25 31.84 16.25H31.5625C32.2525 16.25 32.5 15.655 32.5 14.965V10C32.5 8.625 31.375 7.5 30 7.5H25.6038C24.9125 7.5 23.75 8.03124 23.75 8.72124V8.72498C23.75 9.41498 24.5588 9.99247 25.2487 10.0112L27.1663 10.0625C27.7175 10.0762 27.9837 10.7437 27.595 11.1337L20.3612 18.4038C19.8737 18.8913 19.8912 19.6825 20.38 20.1713C20.8675 20.6588 21.6763 20.66 22.165 20.1713ZM32.5 23.7637V30.0188C32.5 31.3963 31.9375 32.5 30.56 32.5H10.55C9.1725 32.5 7.5 31.3963 7.5 30.0188V10.0088C7.5 8.63002 9.1725 7.5 10.55 7.5H16.805C17.495 7.5 18.055 8.06 18.055 8.75C18.055 9.44125 17.495 10 16.805 10H11.805C11.115 10 10 10.5725 10 11.2637V27.5188C10 28.8963 11.6725 30 13.05 30H29.305C29.995 30 30 29.4537 30 28.7637V23.7637C30 23.0725 30.5588 22.5137 31.25 22.5137C31.94 22.5137 32.5 23.0725 32.5 23.7637Z" fill="#2B2D32"/>
</g>
<defs>
<clipPath id="clip0_29_1240">
<rect width="25" height="25" fill="white" transform="translate(7.5 7.5)"/>
</clipPath>
</defs>
</svg>
