<svg width="61" height="60" viewBox="0 0 61 60" fill="none" xmlns="http://www.w3.org/2000/svg">
<rect x="0.333496" width="60" height="60" rx="30" fill="#DBE4FF"/>
<path opacity="0.2" d="M47.0001 30C47.0001 39.2047 39.5381 46.6667 30.3334 46.6667C21.1287 46.6667 13.6667 39.2047 13.6667 30C13.6667 20.7953 21.1287 13.3333 30.3334 13.3333C39.5381 13.3333 47.0001 20.7953 47.0001 30Z" fill="#124BF6"/>
<path d="M37.0505 24.9495C37.5387 25.4376 37.5387 26.2291 37.0505 26.7172L28.7172 35.0505C28.229 35.5387 27.4377 35.5387 26.9494 35.0505L23.6161 31.7172C23.128 31.229 23.128 30.4377 23.6161 29.9495C24.1043 29.4614 24.8957 29.4614 25.3839 29.9495L27.8333 32.3989L31.558 28.6742L35.2828 24.9495C35.771 24.4613 36.5623 24.4613 37.0505 24.9495Z" fill="#124BF6"/>
</svg>
