<svg width="61" height="60" viewBox="0 0 61 60" fill="none" xmlns="http://www.w3.org/2000/svg">
<rect x="0.666748" width="60" height="60" rx="30" fill="#DBE4FF"/>
<path opacity="0.3" d="M47.3333 29.9999V42.0096C47.3333 44.1493 45.0817 45.5408 43.168 44.5839C41.6212 43.8106 39.7787 43.9253 38.3398 44.8846C36.721 45.9636 34.6123 45.9636 32.9935 44.8846L32.4058 44.4928C31.3527 43.7906 29.9807 43.7906 28.9275 44.4928L28.3398 44.8846C26.7211 45.9636 24.6123 45.9636 22.9936 44.8846C21.5547 43.9253 19.7121 43.8106 18.1653 44.5839C16.2516 45.5408 14 44.1493 14 42.0096V29.9999C14 20.7952 21.4619 13.3333 30.6667 13.3333C39.8713 13.3333 47.3333 20.7952 47.3333 29.9999Z" fill="#124BF6"/>
<path d="M26.4112 33.9959C25.8566 33.5848 25.0737 33.7011 24.6626 34.2558C24.2515 34.8104 24.3679 35.5933 24.9225 36.0043C26.5432 37.2056 28.5252 37.9168 30.6668 37.9168C32.8085 37.9168 34.7905 37.2056 36.4112 36.0043C36.9658 35.5933 37.0822 34.8104 36.671 34.2558C36.26 33.7011 35.4772 33.5848 34.9225 33.9959C33.7085 34.8956 32.2433 35.4168 30.6668 35.4168C29.0903 35.4168 27.6252 34.8956 26.4112 33.9959Z" fill="#124BF6"/>
<path d="M37.3333 25.8333C37.3333 27.2139 36.5872 28.3333 35.6667 28.3333C34.7462 28.3333 34 27.2139 34 25.8333C34 24.4525 34.7462 23.3333 35.6667 23.3333C36.5872 23.3333 37.3333 24.4525 37.3333 25.8333Z" fill="#124BF6"/>
<path d="M25.6667 28.3333C26.5871 28.3333 27.3333 27.2139 27.3333 25.8333C27.3333 24.4525 26.5871 23.3333 25.6667 23.3333C24.7462 23.3333 24 24.4525 24 25.8333C24 27.2139 24.7462 28.3333 25.6667 28.3333Z" fill="#124BF6"/>
</svg>
