<svg width="61" height="60" viewBox="0 0 61 60" fill="none" xmlns="http://www.w3.org/2000/svg">
<rect x="0.333496" width="60" height="60" rx="30" fill="#DBE4FF"/>
<path opacity="0.3" fill-rule="evenodd" clip-rule="evenodd" d="M24.4929 43.3946C20.2808 40.2527 15.3335 36.5626 15.3335 30.1654C15.3335 23.1034 23.5837 18.0951 30.3335 24.8844C37.0833 18.0951 45.3335 23.1034 45.3335 30.1654C45.3335 36.5626 40.3862 40.2527 36.1742 43.3946C35.7363 43.7212 35.3065 44.0419 34.8908 44.3591C33.3335 45.5476 31.8335 46.6667 30.3335 46.6667C28.8335 46.6667 27.3335 45.5476 25.7761 44.3591C25.3606 44.0419 24.9307 43.7212 24.4929 43.3946Z" fill="#124BF6"/>
<path d="M30.3335 28.75C31.0238 28.75 31.5835 29.3097 31.5835 30V34.1667C31.5835 34.857 31.0238 35.4167 30.3335 35.4167C29.6432 35.4167 29.0835 34.857 29.0835 34.1667V30C29.0835 29.3097 29.6432 28.75 30.3335 28.75Z" fill="#124BF6"/>
<path d="M23.2502 21.6666C23.2502 19.1588 23.9958 17.4348 25.1483 16.332C26.3103 15.2201 28.0492 14.5833 30.3336 14.5833C32.6179 14.5833 34.3569 15.2201 35.5189 16.332C36.6714 17.4348 37.4169 19.1588 37.4169 21.6666V21.6688C38.2896 21.6897 39.1304 21.8571 39.9169 22.1486V21.6666C39.9169 18.6516 39.0062 16.2088 37.2472 14.5257C35.4977 12.8516 33.0699 12.0833 30.3336 12.0833C27.5972 12.0833 25.1695 12.8516 23.4199 14.5257C21.661 16.2088 20.7502 18.6516 20.7502 21.6666V22.1486C21.5368 21.8571 22.3776 21.6897 23.2502 21.6688V21.6666Z" fill="#124BF6"/>
</svg>
