<svg width="60" height="60" viewBox="0 0 60 60" fill="none" xmlns="http://www.w3.org/2000/svg">
<rect width="60" height="60" rx="30" fill="#DBE4FF"/>
<path opacity="0.3" d="M29.9999 46.6666C39.2046 46.6666 46.6666 39.2046 46.6666 29.9999C46.6666 20.7952 39.2046 13.3333 29.9999 13.3333C20.7952 13.3333 13.3333 20.7952 13.3333 29.9999C13.3333 39.2046 20.7952 46.6666 29.9999 46.6666Z" fill="#124BF6"/>
<path fill-rule="evenodd" clip-rule="evenodd" d="M30 22.0833C30.6903 22.0833 31.25 22.6429 31.25 23.3333V29.4821L35.0505 33.2828C35.5387 33.7709 35.5387 34.5623 35.0505 35.0504C34.5623 35.5386 33.771 35.5386 33.2828 35.0504L29.1162 30.8838C28.8817 30.6494 28.75 30.3314 28.75 29.9999V23.3333C28.75 22.6429 29.3097 22.0833 30 22.0833Z" fill="#124BF6"/>
</svg>
