<svg width="60" height="60" viewBox="0 0 60 60" fill="none" xmlns="http://www.w3.org/2000/svg">
<rect width="60" height="60" rx="30" fill="#DBE4FF"/>
<path opacity="0.3" d="M29.9999 46.6667C39.2046 46.6667 46.6666 39.2047 46.6666 30C46.6666 20.7953 39.2046 13.3333 29.9999 13.3333C20.7952 13.3333 13.3333 20.7953 13.3333 30C13.3333 39.2047 20.7952 46.6667 29.9999 46.6667Z" fill="#124BF6"/>
<path fill-rule="evenodd" clip-rule="evenodd" d="M17.0833 31.6667C17.0833 30.9763 17.643 30.4167 18.3333 30.4167H28.3333C29.0237 30.4167 29.5833 30.9763 29.5833 31.6667V41.6667C29.5833 42.357 29.0237 42.9167 28.3333 42.9167C27.643 42.9167 27.0833 42.357 27.0833 41.6667V34.6845L15.8839 45.8838C15.3957 46.372 14.6043 46.372 14.1161 45.8838C13.628 45.3957 13.628 44.6043 14.1161 44.1162L25.3156 32.9167H18.3333C17.643 32.9167 17.0833 32.357 17.0833 31.6667Z" fill="#124BF6"/>
</svg>
