<svg width="61" height="60" viewBox="0 0 61 60" fill="none" xmlns="http://www.w3.org/2000/svg">
<rect x="0.666748" width="60" height="60" rx="30" fill="#DBE4FF"/>
<path opacity="0.3" fill-rule="evenodd" clip-rule="evenodd" d="M31.8497 11.9314C31.6312 11.4767 31.1713 11.1875 30.6667 11.1875C29.38 11.1875 28.1221 11.3169 26.9056 11.5638C18.3182 13.307 11.8542 20.8971 11.8542 30C11.8542 40.3899 20.2769 48.8125 30.6667 48.8125C41.0567 48.8125 49.4792 40.3899 49.4792 30C49.4792 22.2836 44.8337 15.6552 38.1923 12.7534C37.528 12.4632 36.7543 12.7664 36.464 13.4307C36.1738 14.0949 36.4771 14.8686 37.1412 15.1589C42.8611 17.658 46.8542 23.3641 46.8542 30C46.8542 38.9401 39.6068 46.1875 30.6667 46.1875C21.7266 46.1875 14.4792 38.9401 14.4792 30C14.4792 22.7367 19.2641 16.5884 25.8542 14.5395V16.875C25.8542 17.4324 26.2063 17.929 26.7323 18.1135C27.2583 18.298 27.8435 18.1302 28.1917 17.6949L31.6917 13.3199C32.0069 12.9259 32.0683 12.3862 31.8497 11.9314Z" fill="#124BF6"/>
<path d="M34.7226 25.2001C34.7226 25.7881 34.6146 26.4721 34.3986 27.2521C34.1946 28.0201 33.8946 28.9681 33.4986 30.0961L33.0846 31.3381C33.2886 31.3741 33.4986 31.3921 33.7146 31.3921C34.0866 31.3921 34.6446 31.3561 35.3886 31.2841C36.1326 31.2121 36.6666 31.1761 36.9906 31.1761L36.9726 29.1961C36.9486 27.8281 36.9366 26.8201 36.9366 26.1721C36.9366 25.3201 37.2186 24.8941 37.7826 24.8941C38.2266 24.8941 38.5086 25.0081 38.6286 25.2361C38.7606 25.4641 38.8266 25.8061 38.8266 26.2621C38.8266 26.7301 38.7906 27.4561 38.7186 28.4401C38.7066 28.6321 38.6886 28.9501 38.6646 29.3941C38.6406 29.8381 38.6286 30.2221 38.6286 30.5461L38.6466 31.1221L39.0066 31.1041C39.2946 31.0801 39.5166 31.0681 39.6726 31.0681C39.9606 31.0681 40.2366 31.1641 40.5006 31.3561C40.7646 31.5361 40.8966 31.7521 40.8966 32.0041C40.8966 32.3041 40.8486 32.5381 40.7526 32.7061C40.6686 32.8741 40.5666 32.9581 40.4466 32.9581C40.2426 32.9581 39.9846 32.9341 39.6726 32.8861C39.6006 32.8861 39.4926 32.8801 39.3486 32.8681C39.2046 32.8441 39.0666 32.8321 38.9346 32.8321L38.6286 32.8501L38.6466 35.2801C38.6466 35.5321 38.5626 35.7241 38.3946 35.8561C38.2266 35.9881 38.0346 36.0541 37.8186 36.0541C37.5546 36.0541 37.3206 35.9701 37.1166 35.8021C36.9126 35.6341 36.8106 35.4241 36.8106 35.1721C36.8106 34.3681 36.8226 33.7381 36.8466 33.2821C36.8586 33.1741 36.8646 33.0421 36.8646 32.8861C36.5046 32.8741 35.8806 32.9161 34.9926 33.0121C34.1526 33.1081 33.5166 33.1561 33.0846 33.1561C32.5326 33.1561 32.0646 33.0781 31.6806 32.9221C31.3086 32.7661 31.1226 32.5201 31.1226 32.1841C31.1226 31.8601 31.1886 31.4641 31.3206 30.9961C31.4526 30.5281 31.6506 29.8981 31.9146 29.1061C32.0346 28.7941 32.1246 28.5361 32.1846 28.3321C32.4006 27.7201 32.5626 27.2041 32.6706 26.7841C32.7786 26.3521 32.8986 25.8301 33.0306 25.2181C33.0786 25.0261 33.1806 24.8821 33.3366 24.7861C33.4926 24.6901 33.6726 24.6421 33.8766 24.6421C34.0926 24.6421 34.2846 24.6961 34.4526 24.8041C34.6326 24.9001 34.7226 25.0321 34.7226 25.2001Z" fill="#124BF6"/>
<path d="M24.4379 34.1282C24.8459 34.1522 25.1159 34.1642 25.2479 34.1642C25.6559 34.1642 26.0159 34.1582 26.3279 34.1462C26.6519 34.1342 26.9279 34.1222 27.1559 34.1102C27.7439 34.0742 28.2719 34.0562 28.7399 34.0562C29.1959 34.0562 29.5319 34.1762 29.7479 34.4162C29.9639 34.6562 30.0719 34.9742 30.0719 35.3702C30.0719 35.5622 29.9459 35.7182 29.6939 35.8382C29.4419 35.9462 29.1839 36.0002 28.9199 36.0002C28.6919 36.0002 28.2179 35.9762 27.4979 35.9282C26.6339 35.8562 25.9559 35.8202 25.4639 35.8202C25.1999 35.8202 24.8879 35.8382 24.5279 35.8742C24.3839 35.8862 24.2099 35.8982 24.0059 35.9102C23.8019 35.9222 23.5739 35.9282 23.3219 35.9282C22.8419 35.9282 22.4759 35.8622 22.2239 35.7302C21.9719 35.5982 21.8459 35.3582 21.8459 35.0102C21.8459 34.7102 21.9659 34.4042 22.2059 34.0922C22.4459 33.7802 22.7819 33.4082 23.2139 32.9762L23.6459 32.5442C23.8379 32.3402 24.1919 31.9922 24.7079 31.5002C25.5599 30.7322 26.2199 30.0542 26.6879 29.4662C27.1679 28.8782 27.4079 28.2962 27.4079 27.7202C27.4079 27.3482 27.2279 27.0482 26.8679 26.8202C26.5199 26.5802 26.1179 26.4602 25.6619 26.4602C24.9659 26.4602 24.4619 26.6162 24.1499 26.9282C23.8499 27.2282 23.6999 27.6662 23.6999 28.2422C23.6999 28.3862 23.6159 28.5182 23.4479 28.6382C23.2919 28.7462 23.0939 28.8002 22.8539 28.8002C22.5179 28.8002 22.2839 28.6802 22.1519 28.4402C22.0199 28.2002 21.9539 27.9062 21.9539 27.5582C21.9539 27.0062 22.1219 26.5202 22.4579 26.1002C22.7939 25.6682 23.2499 25.3322 23.8259 25.0922C24.4139 24.8522 25.0619 24.7322 25.7699 24.7322C26.2739 24.7322 26.7959 24.8582 27.3359 25.1102C27.8879 25.3502 28.3439 25.6802 28.7039 26.1002C29.0759 26.5082 29.2619 26.9582 29.2619 27.4502C29.2619 28.1942 29.0759 28.9022 28.7039 29.5742C28.3319 30.2462 27.8939 30.8462 27.3899 31.3742C26.8979 31.8902 26.2559 32.5022 25.4639 33.2102C25.0799 33.5342 24.7379 33.8402 24.4379 34.1282Z" fill="#124BF6"/>
</svg>
