<svg width="60" height="60" viewBox="0 0 60 60" fill="none" xmlns="http://www.w3.org/2000/svg">
<rect width="60" height="60" rx="30" fill="#DBE4FF"/>
<path opacity="0.3" d="M20.4333 45.6474H20.0001C18.4287 45.6474 17.6431 45.6474 17.1549 45.1592C16.6667 44.671 16.6667 43.8854 16.6667 42.314V40.4607C16.6667 39.5965 16.6667 39.1645 16.8887 38.7787C17.1107 38.3927 17.4455 38.198 18.1152 37.8085C22.5244 35.244 28.7859 33.8005 32.9652 36.2932C33.2459 36.4607 33.4986 36.6629 33.7142 36.9052C34.6444 37.95 34.5767 39.5269 33.5047 40.4625C33.2782 40.66 33.0371 40.81 32.7941 40.862C32.9937 40.8389 33.1851 40.8124 33.3677 40.7832C34.8867 40.5409 36.1617 39.7292 37.3291 38.8473L40.3411 36.5722C41.4029 35.77 42.9789 35.7699 44.0409 36.5717C44.9971 37.2937 45.2894 38.4824 44.6849 39.4512C43.9801 40.5812 42.9869 42.0267 42.0332 42.9098C41.0782 43.7943 39.6566 44.584 38.4959 45.1442C37.2101 45.7649 35.7897 46.1224 34.3449 46.3564C31.4147 46.8305 28.3611 46.7582 25.4606 46.1607C23.821 45.8229 22.1181 45.6474 20.4333 45.6474Z" fill="#124BF6"/>
<path d="M28.1021 15.6055C28.9464 14.0907 29.3688 13.3333 29.9999 13.3333C30.6311 13.3333 31.0534 14.0907 31.8977 15.6055L32.1163 15.9974C32.3563 16.4279 32.4762 16.6431 32.6632 16.7851C32.8504 16.9271 33.0834 16.9799 33.5492 17.0853L33.9736 17.1813C35.6134 17.5523 36.4333 17.7378 36.6283 18.3651C36.8234 18.9924 36.2644 19.646 35.1466 20.9532L34.8573 21.2914C34.5396 21.6629 34.3807 21.8486 34.3094 22.0784C34.2379 22.3082 34.2619 22.556 34.3099 23.0516L34.3536 23.5029C34.5226 25.247 34.6073 26.1191 34.0964 26.5067C33.5858 26.8944 32.8181 26.541 31.2828 25.834L30.8856 25.6512C30.4492 25.4503 30.2311 25.3498 29.9999 25.3498C29.7688 25.3498 29.5506 25.4503 29.1143 25.6512L28.7171 25.834C27.1818 26.541 26.414 26.8944 25.9033 26.5067C25.3927 26.1191 25.4772 25.247 25.6462 23.5029L25.6899 23.0516C25.7379 22.556 25.7619 22.3082 25.6905 22.0784C25.619 21.8486 25.4602 21.6629 25.1425 21.2914L24.8533 20.9532C23.7354 19.646 23.1765 18.9924 23.3715 18.3651C23.5666 17.7378 24.3865 17.5523 26.0263 17.1813L26.4505 17.0853C26.9164 16.9799 27.1494 16.9271 27.3366 16.7851C27.5236 16.6431 27.6436 16.4279 27.8836 15.9974L28.1021 15.6055Z" fill="#124BF6"/>
<path d="M42.3843 22.8029C42.8066 22.0454 43.0176 21.6667 43.3333 21.6667C43.649 21.6667 43.86 22.0455 44.2823 22.8029L44.3915 22.9988C44.5115 23.2141 44.5715 23.3217 44.665 23.3927C44.7585 23.4637 44.875 23.49 45.108 23.5428L45.3201 23.5908C46.14 23.7763 46.55 23.869 46.6475 24.1827C46.745 24.4963 46.4656 24.8231 45.9066 25.4767L45.762 25.6458C45.6031 25.8316 45.5238 25.9244 45.488 26.0393C45.4523 26.1542 45.4643 26.2781 45.4883 26.5259L45.5101 26.7516C45.5946 27.6236 45.637 28.0596 45.3816 28.2534C45.1263 28.4472 44.7425 28.2706 43.9748 27.9171L43.7761 27.8257C43.558 27.7252 43.449 27.6751 43.3333 27.6751C43.2176 27.6751 43.1086 27.7252 42.8905 27.8257L42.6918 27.9171C41.9241 28.2706 41.5403 28.4472 41.285 28.2534C41.0296 28.0596 41.072 27.6236 41.1565 26.7516L41.1783 26.5259C41.2023 26.2781 41.2143 26.1542 41.1786 26.0393C41.1428 25.9244 41.0635 25.8316 40.9046 25.6458L40.76 25.4767C40.2011 24.8231 39.9216 24.4963 40.0191 24.1827C40.1166 23.869 40.5266 23.7763 41.3465 23.5908L41.5586 23.5428C41.7916 23.49 41.9081 23.4637 42.0016 23.3927C42.0951 23.3217 42.1551 23.2141 42.2751 22.9988L42.3843 22.8029Z" fill="#124BF6"/>
<path d="M15.7176 22.8029C16.1399 22.0454 16.351 21.6667 16.6666 21.6667C16.9822 21.6667 17.1933 22.0455 17.6155 22.8029L17.7248 22.9988C17.8448 23.2141 17.9047 23.3217 17.9983 23.3927C18.0918 23.4637 18.2083 23.49 18.4413 23.5428L18.6534 23.5908C19.4733 23.7763 19.8833 23.869 19.9808 24.1827C20.0783 24.4963 19.7988 24.8231 19.2399 25.4767L19.0953 25.6458C18.9364 25.8316 18.857 25.9244 18.8213 26.0393C18.7856 26.1542 18.7976 26.2781 18.8216 26.5259L18.8435 26.7516C18.928 27.6236 18.9702 28.0596 18.7149 28.2534C18.4595 28.4472 18.0757 28.2706 17.308 27.9171L17.1094 27.8257C16.8913 27.7252 16.7822 27.6751 16.6666 27.6751C16.551 27.6751 16.4419 27.7252 16.2238 27.8257L16.0251 27.9171C15.2575 28.2706 14.8737 28.4472 14.6183 28.2534C14.363 28.0596 14.4052 27.6236 14.4897 26.7516L14.5116 26.5259C14.5356 26.2781 14.5476 26.1542 14.5119 26.0393C14.4762 25.9244 14.3967 25.8316 14.2379 25.6458L14.0933 25.4767C13.5343 24.8231 13.2549 24.4963 13.3524 24.1827C13.4499 23.869 13.8599 23.7763 14.6798 23.5908L14.8919 23.5428C15.1249 23.49 15.2414 23.4637 15.3349 23.3927C15.4284 23.3217 15.4884 23.2141 15.6084 22.9988L15.7176 22.8029Z" fill="#124BF6"/>
</svg>
