<svg width="61" height="60" viewBox="0 0 61 60" fill="none" xmlns="http://www.w3.org/2000/svg">
<rect x="0.666748" width="60" height="60" rx="30" fill="#DBE4FF"/>
<path fill-rule="evenodd" clip-rule="evenodd" d="M40.6667 33.3334C40.6667 40.6972 34.6972 46.6667 27.3333 46.6667C25.2741 46.6667 23.324 46.1999 21.5829 45.3664C20.9845 45.0799 20.3066 44.9794 19.6657 45.1507L17.6222 45.6975C16.0117 46.1284 14.5383 44.655 14.9692 43.0445L15.5159 41.001C15.6874 40.3602 15.5868 39.6822 15.3003 39.0837C14.4668 37.3427 14 35.3925 14 33.3334C14 25.9696 19.9695 20 27.3333 20C34.6972 20 40.6667 25.9696 40.6667 33.3334ZM21.5 35C22.4205 35 23.1667 34.2539 23.1667 33.3334C23.1667 32.4129 22.4205 31.6667 21.5 31.6667C20.5795 31.6667 19.8333 32.4129 19.8333 33.3334C19.8333 34.2539 20.5795 35 21.5 35ZM27.3333 35C28.2538 35 29 34.2539 29 33.3334C29 32.4129 28.2538 31.6667 27.3333 31.6667C26.4129 31.6667 25.6667 32.4129 25.6667 33.3334C25.6667 34.2539 26.4129 35 27.3333 35ZM33.1667 35C34.0872 35 34.8333 34.2539 34.8333 33.3334C34.8333 32.4129 34.0872 31.6667 33.1667 31.6667C32.2462 31.6667 31.5 32.4129 31.5 33.3334C31.5 34.2539 32.2462 35 33.1667 35Z" fill="#124BF6"/>
<path opacity="0.3" d="M40.6403 34.1807C40.8201 34.1064 40.9976 34.0272 41.1724 33.9435C41.6586 33.7107 42.2094 33.629 42.7301 33.7684L44.3904 34.2125C45.6989 34.5627 46.8961 33.3655 46.5461 32.057L46.1018 30.3967C45.9624 29.876 46.0443 29.325 46.2769 28.8389C46.9543 27.4242 47.3334 25.8398 47.3334 24.1667C47.3334 18.1836 42.4833 13.3334 36.5001 13.3334C31.9834 13.3334 28.1123 16.0975 26.4861 20.0265C26.7663 20.009 27.0489 20 27.3334 20C34.6973 20 40.6667 25.9696 40.6667 33.3334C40.6667 33.618 40.6579 33.9005 40.6403 34.1807Z" fill="#124BF6"/>
</svg>
