<svg width="186" height="48" viewBox="0 0 186 48" fill="none" xmlns="http://www.w3.org/2000/svg">
<rect width="186" height="48" rx="24" fill="#F4F4F5"/>
<path fill-rule="evenodd" clip-rule="evenodd" d="M149.311 34.7891C147.572 34.7891 146.005 34.324 144.616 33.3939C143.228 32.4573 142.144 31.2022 141.37 29.6092C140.597 28.023 140.206 26.2899 140.206 24.3977C140.206 22.5183 140.603 20.7789 141.383 19.1861C142.164 17.5933 143.241 16.3318 144.623 15.4016C146.005 14.4651 147.559 14 149.278 14C150.647 14 151.844 14.2102 152.868 14.6245C153.893 15.0385 154.707 15.6502 155.302 16.4464V14.6499H162V34.12H155.282V32.368C154.687 33.1516 153.88 33.7505 152.862 34.1646C151.837 34.5852 150.66 34.7891 149.311 34.7891ZM121.567 25.9201L122.227 19.7781L123.786 20.0514L122.853 14.6497H98.0383V26.3345C98.0383 27.0353 97.9064 27.5514 97.6421 27.8826C97.3775 28.2204 97.0004 28.3923 96.5111 28.3923H95.4797V34.12H96.9544C98.3358 34.12 99.6454 33.8649 100.888 33.3617C102.125 32.8585 103.143 32.0494 103.93 30.9342C104.717 29.8261 105.107 28.4116 105.107 26.6911V20.3454H110.846V34.12H112.576L114.517 21.3978L118.628 22.1938L120.127 19.3562L118.565 19.0713L122.853 14.6497H125.043V20.7343H125.996L129.791 14.6497H138.102L131.649 23.6331L138.724 34.12H130.293L126.459 27.513H125.043V34.12C120.888 34.12 116.732 34.12 112.576 34.12L117.507 25.1432L121.567 25.9201ZM48.4856 28.4816C49.2463 27.526 49.8743 26.3154 50.3571 24.8627C50.8397 23.404 51.1702 21.6263 51.3554 19.5237L51.7587 14.6499H68.6727V28.4816H70.5108V38H63.4821V34.12H53.9872V38H46.9782V28.4816H48.4856ZM61.6372 20.3076H58.0536L57.9015 21.8558C57.7559 23.3019 57.4915 24.538 57.108 25.5701C56.7179 26.6022 56.2155 27.5769 55.5939 28.4816H61.6372V20.3076ZM34.6786 34.7762C32.5957 34.7762 30.7511 34.3047 29.1244 33.3746C27.5045 32.438 26.2481 31.1829 25.3488 29.5966C24.4498 28.0101 24 26.2772 24 24.3977C24 22.5183 24.4498 20.7853 25.3488 19.199C26.2481 17.6124 27.5045 16.3447 29.1244 15.4081C30.7511 14.4716 32.5957 14 34.6786 14C36.5764 14 38.269 14.3631 39.7634 15.1022C41.2509 15.8348 42.4744 16.8352 43.433 18.1029C44.3853 19.3772 45.0266 20.8108 45.3506 22.4163H38.1831C37.6275 21.0083 36.4706 20.3076 34.7182 20.3076C34.057 20.3076 33.4421 20.4603 32.8736 20.7726C32.3049 21.0847 31.8551 21.5434 31.5181 22.155C31.1809 22.7668 31.0154 23.5057 31.0154 24.3786C31.0154 25.2578 31.1876 26.0096 31.5312 26.6278C31.8684 27.2393 32.3247 27.7108 32.8867 28.023C33.4488 28.3414 34.057 28.5006 34.7182 28.5006C35.5579 28.5006 36.272 28.3095 36.8738 27.9335C37.4754 27.5514 37.9118 26.9014 38.1831 25.9842H45.3506C45.0531 27.6724 44.4315 29.1888 43.4793 30.5203C42.5338 31.8519 41.3039 32.8904 39.7898 33.6421C38.2823 34.394 36.5764 34.7762 34.6786 34.7762ZM93.6803 24.3977C93.6803 24.9075 93.6341 25.4552 93.5414 26.0352H79.4445C79.8278 28.0165 81.0249 29.004 83.0282 29.004C84.5093 29.004 85.4481 28.5199 85.8317 27.5514H93.33C93.0587 28.7556 92.4769 29.9087 91.5776 31.0108C90.6782 32.1133 89.5079 33.0179 88.06 33.7186C86.6185 34.4195 84.9853 34.7762 83.1605 34.7762C81.0577 34.7762 79.1799 34.3047 77.5334 33.3746C75.8871 32.438 74.611 31.1829 73.6986 29.5966C72.7859 28.0101 72.3297 26.2772 72.3297 24.3977C72.3297 22.5054 72.7859 20.7662 73.6986 19.1797C74.611 17.5933 75.8871 16.3318 77.527 15.4016C79.1666 14.4651 81.0445 14 83.1605 14C85.2763 14 87.1342 14.4651 88.7278 15.3888C90.3279 16.3192 91.5511 17.5679 92.4042 19.1479C93.257 20.7278 93.6803 22.48 93.6803 24.3977ZM86.4334 21.7983C86.3475 21.0783 85.997 20.4986 85.3888 20.0526C84.7802 19.6131 84.0662 19.3901 83.2398 19.3901C82.4397 19.3901 81.7255 19.5811 81.1106 19.9506C80.4893 20.3266 80.0197 20.9447 79.6958 21.7983H86.4334ZM151.097 28.5199C151.831 28.5199 152.498 28.3414 153.093 27.9784C153.688 27.6151 154.151 27.1183 154.489 26.4873C154.819 25.8502 154.991 25.1496 154.991 24.3786C154.991 23.6331 154.819 22.945 154.475 22.3144C154.132 21.6837 153.669 21.1868 153.073 20.8237C152.478 20.454 151.824 20.2692 151.116 20.2692C150.396 20.2692 149.734 20.4286 149.153 20.7471C148.564 21.0657 148.095 21.5308 147.744 22.1488C147.394 22.7603 147.222 23.5057 147.222 24.3786C147.222 25.2961 147.4 26.0669 147.757 26.6913C148.108 27.3158 148.584 27.7745 149.166 28.0739C149.754 28.3734 150.402 28.5199 151.097 28.5199Z" fill="#124BF6"/>
</svg>
