<svg width="32" height="32" viewBox="0 0 32 32" fill="none" xmlns="http://www.w3.org/2000/svg">
<path d="M28.8803 16C28.8814 16.5049 28.7391 16.9997 28.4701 17.4269C28.201 17.8542 27.8161 18.1962 27.3603 18.4133L7.82697 27.6666C7.46946 27.8616 7.07342 27.9754 6.66697 28C6.22219 27.9991 5.78471 27.8869 5.39435 27.6737C5.00399 27.4605 4.67316 27.1531 4.43197 26.7794C4.19078 26.4056 4.0469 25.9775 4.01342 25.534C3.97995 25.0905 4.05794 24.6457 4.2403 24.24L7.2803 17.3333H14.667C15.0206 17.3333 15.3597 17.1928 15.6098 16.9428C15.8598 16.6927 16.0003 16.3536 16.0003 16C16.0003 15.6464 15.8598 15.3072 15.6098 15.0572C15.3597 14.8071 15.0206 14.6666 14.667 14.6666H7.2803L4.2403 7.82664C4.02002 7.32959 3.95694 6.77708 4.0595 6.24316C4.16206 5.70924 4.42537 5.21943 4.81414 4.83937C5.2029 4.45931 5.69855 4.20716 6.23465 4.11671C6.77075 4.02626 7.32169 4.10184 7.81363 4.33331L27.347 13.5866C27.8053 13.8018 28.1929 14.1431 28.4644 14.5704C28.736 14.9978 28.8802 15.4936 28.8803 16Z" fill="#2B2D32"/>
</svg>
